HIERARCHY
ROOT Hips
{
  OFFSET 0.0 0.0 0.0
  CHANNELS 6 XPOSITION YPOSITION ZPOSITION ZROTATION XROTATION YROTATION 
  JOINT RightUpLeg
  {
    OFFSET -0.089458 -0.0866707 0.00101652
    CHANNELS 3 ZROTATION XROTATION YROTATION 
    JOINT RightLeg
    {
      OFFSET 0.0 -0.444227 0.013727
      CHANNELS 3 ZROTATION XROTATION YROTATION 
      JOINT RightFoot
      {
        OFFSET 0.00253549 -0.420924 -0.0146059
        CHANNELS 3 ZROTATION XROTATION YROTATION 
        End Site
        {
          OFFSET 0.0004 -0.0441509 0.084991
        }
      }
    }
  }
  JOINT Spine
  {
    OFFSET 0.0 0.118905 0.0
    CHANNELS 3 ZROTATION XROTATION YROTATION 
    JOINT Spine1
    {
      OFFSET 0.0 0.256574 0.00127663
      CHANNELS 3 ZROTATION XROTATION YROTATION 
      End Site
      {
        OFFSET -0.0029 0.2150836 0.02525291
      }
      JOINT RightArm
      {
        OFFSET -0.162727 -0.05365632 0.00102123
        CHANNELS 3 ZROTATION XROTATION YROTATION 
        JOINT RightForeArm
        {
          OFFSET -0.26364 0.00099144 -0.0142434
          CHANNELS 3 ZROTATION XROTATION YROTATION 
          End Site
          {
            OFFSET -0.220324 0.00085362 0.0102216
          }
        }
      }
      JOINT LeftArm
      {
        OFFSET 0.162727 -0.0536563199 0.00102123
        CHANNELS 3 ZROTATION XROTATION YROTATION 
        JOINT LeftForeArm
        {
          OFFSET 0.262597 0.00099144 -0.0142434
          CHANNELS 3 ZROTATION XROTATION YROTATION 
          End Site
          {
            OFFSET 0.220902 0.00085362 0.0102216
          }
        }
      }
    }
  }
  JOINT LeftUpLeg
  {
    OFFSET 0.089458 -0.0866707 0.00101652
    CHANNELS 3 ZROTATION XROTATION YROTATION 
    JOINT LeftLeg
    {
      OFFSET 0.0 -0.444227 0.013727
      CHANNELS 3 ZROTATION XROTATION YROTATION 
      JOINT LeftFoot
      {
        OFFSET -0.00253549 -0.420924 -0.0146059
        CHANNELS 3 ZROTATION XROTATION YROTATION 
        End Site
        {
          OFFSET -0.0004 -0.0441509 0.084991
        }
      }
    }
  }
}
MOTION
Frames: 6
Frame Time: 0.033333
1.40457299172 1.18362059135 -1.09030988549 2.88628511776 1.40850442845 82.4807223793 1.43986321431 -16.8397801722 4.5092793641 -1.27801152992 55.2253237794 -11.6687805554 4.10621496014 -38.1201531919 1.57185235115 -9.05871938674 9.81294046452 -0.773898746055 2.96424639106 4.03825030903 -2.0563802079 75.6414900388 -19.2399667032 6.17812082835 5.18999992244 54.405520079 11.6253268919 -107.625790601 -50.05838471 -42.090600213 -169.76648284 70.3238940718 167.131942273 -6.65008433868 -13.3524042566 -0.321189699081 0.364813877186 27.6959833674 12.1652567609 -9.87283439335 -49.588860431 -10.1809817929 
1.4245960862 1.18988168892 -1.09083729491 3.02047229486 1.03796901385 82.2264822478 2.02449389664 -19.3837097418 4.73249720325 -1.15507858359 53.3638547589 -12.3574232794 3.99566023757 -38.6755636846 1.61782699478 -9.6553799532 10.3747055945 -1.07513644871 3.77948176213 3.94395912065 -2.64865237781 74.1521536299 -20.1404793339 4.39884075475 4.90334157873 54.0972633965 11.7687309824 -107.027308935 -47.7560577144 -42.9895419002 -171.570294818 72.4651788672 167.573609626 -6.34428865868 -10.6777918238 0.0955283664232 0.344257008816 25.4935444733 11.9244336823 -10.1871238405 -49.8020477105 -10.2856151683 
1.44444706542 1.19514449379 -1.09128434531 2.96133438259 0.653333314043 82.1610217148 2.43324784818 -21.5281193487 4.52608162946 -0.992060004065 49.5097121989 -12.4945700629 4.30075368874 -38.8713544723 1.62603079903 -10.0601258644 10.8549046054 -1.44723309514 4.56565233041 3.81795621773 -3.28063099869 72.723906433 -20.4811435565 2.63742055861 4.5337873635 53.0915965884 12.2595534988 -106.749497821 -45.9077880344 -44.1301186048 -174.899492944 74.2907791493 169.825290768 -5.95239588288 -8.49261964795 0.45327184389 0.299970489124 23.845074902 11.6072251831 -10.594421681 -50.1635525478 -10.4472584252 
1.46486043633 1.19864290843 -1.09160126885 2.9339752061 0.387007856522 82.0246501578 2.59068989841 -23.1444221441 3.94237067478 -0.924452550505 44.3457647524 -11.4928997692 4.64692261691 -39.0232510492 1.63774681461 -10.2483991751 11.279190834 -1.72421423474 4.97416722533 3.58689604075 -3.70210382969 71.3808316949 -21.6914257567 0.907654020406 4.45971737705 53.1999097282 12.1858079463 -106.485804708 -44.3235017508 -45.1681844153 -178.549901207 76.0101221785 172.519253981 -5.81793592511 -6.29457000417 0.443742689461 0.331366600903 22.240376598 11.7041148315 -10.8694665687 -50.6103288818 -10.6202141829 
1.48619239539 1.20035754257 -1.09149438252 2.82709171021 0.256150983617 81.9201892447 2.63704212344 -24.3150568037 3.40901251499 -0.888727566216 38.4323645539 -10.1432808562 5.16604303393 -39.5158886884 1.67793820901 -10.4052963043 11.4133212352 -1.95890145561 5.32369703347 3.43978678607 -4.0268865818 70.0056482376 -23.1656862306 -0.708980466036 4.59634122413 53.486258579 11.7894341396 -106.355279793 -42.9636623135 -46.2125305846 178.113178911 77.2488794373 175.082309788 -5.91967372723 -4.22477551818 0.0103940821608 0.419171777613 20.7761035683 12.1417592026 -11.1451842301 -50.9894419467 -10.7785721188 
1.50848315341 1.20069700599 -1.09092597326 2.66209632453 0.144151515959 82.2022692272 2.53737749718 -25.0723898864 2.9894512832 -0.790675611647 32.4018710074 -9.55690826216 5.60874558697 -40.1683698296 1.73548426031 -10.4758717952 11.3868644974 -2.28910438971 5.67288362459 3.32545710333 -4.43072663911 68.62070444 -24.4697537582 -2.13203885366 4.79178239147 54.4474676858 11.3397677818 -106.042354676 -41.6016098948 -46.8375646107 173.611182663 78.1204457264 179.023151354 -6.02858749685 -2.43015291872 -0.333655301244 0.70003206445 19.8666314369 12.110100422 -11.5690102747 -51.4465352815 -10.9869987564 
